{
    "asset" : {
        "generator" : "Khronos glTF Blender I/O v3.3.32",
        "version" : "2.0"
    },
    "extensionsUsed" : [
        "KHR_materials_specular",
        "KHR_materials_ior"
    ],
    "scene" : 0,
    "scenes" : [
        {
            "name" : "Scene",
            "nodes" : [
                0,
                1
            ]
        }
    ],
    "nodes" : [
        {
            "mesh" : 0,
            "name" : "Cube.047",
            "scale" : [
                9.585856437683105,
                9.585856437683105,
                9.585856437683105
            ],
            "translation" : [
                -1.0963592529296875,
                -10.47259521484375,
                147.27023315429688
            ]
        },
        {
            "mesh" : 1,
            "name" : "Cube.044",
            "scale" : [
                14.92440128326416,
                14.92440128326416,
                14.92440128326416
            ],
            "translation" : [
                0.200408935546875,
                10.017230987548828,
                145.48521423339844
            ]
        }
    ],
    "materials" : [
        {
            "doubleSided" : true,
            "extensions" : {
                "KHR_materials_specular" : {
                    "specularColorFactor" : [
                        0,
                        0,
                        0
                    ]
                },
                "KHR_materials_ior" : {
                    "ior" : 1.4500000476837158
                }
            },
            "name" : "biru pens",
            "pbrMetallicRoughness" : {
                "baseColorFactor" : [
                    0.028425810858607292,
                    0.07227171957492828,
                    0.28314870595932007,
                    1
                ],
                "metallicFactor" : 0,
                "roughnessFactor" : 0.5
            }
        },
        {
            "doubleSided" : true,
            "extensions" : {
                "KHR_materials_specular" : {
                    "specularColorFactor" : [
                        2.371357614441398,
                        2.371357614441398,
                        2.371357614441398
                    ]
                },
                "KHR_materials_ior" : {
                    "ior" : 1.4500000476837158
                }
            },
            "name" : "kuning pens",
            "pbrMetallicRoughness" : {
                "baseColorFactor" : [
                    1,
                    0.9046607613563538,
                    0,
                    1
                ],
                "metallicFactor" : 0,
                "roughnessFactor" : 0
            }
        },
        {
            "doubleSided" : true,
            "extensions" : {
                "KHR_materials_specular" : {
                    "specularColorFactor" : [
                        0,
                        0,
                        0
                    ]
                },
                "KHR_materials_ior" : {
                    "ior" : 1.4500000476837158
                }
            },
            "name" : "biru pens.001",
            "pbrMetallicRoughness" : {
                "baseColorFactor" : [
                    0.028425810858607292,
                    0.07227171957492828,
                    0.28314870595932007,
                    1
                ],
                "metallicFactor" : 0,
                "roughnessFactor" : 0.5
            }
        },
        {
            "doubleSided" : true,
            "extensions" : {
                "KHR_materials_specular" : {
                    "specularColorFactor" : [
                        2.371357614441398,
                        2.371357614441398,
                        2.371357614441398
                    ]
                },
                "KHR_materials_ior" : {
                    "ior" : 1.4500000476837158
                }
            },
            "name" : "kuning pens.001",
            "pbrMetallicRoughness" : {
                "baseColorFactor" : [
                    1,
                    0.9046607613563538,
                    0,
                    1
                ],
                "metallicFactor" : 0,
                "roughnessFactor" : 0
            }
        }
    ],
    "meshes" : [
        {
            "name" : "Cube.027",
            "primitives" : [
                {
                    "attributes" : {
                        "POSITION" : 0,
                        "NORMAL" : 1,
                        "TEXCOORD_0" : 2
                    },
                    "indices" : 3,
                    "material" : 0
                },
                {
                    "attributes" : {
                        "POSITION" : 4,
                        "NORMAL" : 5,
                        "TEXCOORD_0" : 6
                    },
                    "indices" : 7,
                    "material" : 1
                }
            ]
        },
        {
            "name" : "Cube.054",
            "primitives" : [
                {
                    "attributes" : {
                        "POSITION" : 8,
                        "NORMAL" : 9,
                        "TEXCOORD_0" : 10
                    },
                    "indices" : 11,
                    "material" : 2
                },
                {
                    "attributes" : {
                        "POSITION" : 12,
                        "NORMAL" : 13,
                        "TEXCOORD_0" : 14
                    },
                    "indices" : 15,
                    "material" : 3
                }
            ]
        }
    ],
    "accessors" : [
        {
            "bufferView" : 0,
            "componentType" : 5126,
            "count" : 591,
            "max" : [
                1.39688241481781,
                0.2598009705543518,
                9.111447241139103e-08
            ],
            "min" : [
                -1.4196338653564453,
                -0.5235881805419922,
                -1.2427999251940491e-07
            ],
            "type" : "VEC3"
        },
        {
            "bufferView" : 1,
            "componentType" : 5126,
            "count" : 591,
            "type" : "VEC3"
        },
        {
            "bufferView" : 2,
            "componentType" : 5126,
            "count" : 591,
            "type" : "VEC2"
        },
        {
            "bufferView" : 3,
            "componentType" : 5123,
            "count" : 591,
            "type" : "SCALAR"
        },
        {
            "bufferView" : 4,
            "componentType" : 5126,
            "count" : 228,
            "max" : [
                0.02444314956665039,
                0.24193507432937622,
                -3.3357281381540815e-09
            ],
            "min" : [
                -0.6816341280937195,
                -0.3063313364982605,
                -7.700016624312411e-08
            ],
            "type" : "VEC3"
        },
        {
            "bufferView" : 5,
            "componentType" : 5126,
            "count" : 228,
            "type" : "VEC3"
        },
        {
            "bufferView" : 6,
            "componentType" : 5126,
            "count" : 228,
            "type" : "VEC2"
        },
        {
            "bufferView" : 7,
            "componentType" : 5123,
            "count" : 228,
            "type" : "SCALAR"
        },
        {
            "bufferView" : 8,
            "componentType" : 5126,
            "count" : 3582,
            "max" : [
                0.6764944195747375,
                0.6293390989303589,
                0.03942181542515755
            ],
            "min" : [
                -1.113954782485962,
                -0.9339563846588135,
                -0.039422281086444855
            ],
            "type" : "VEC3"
        },
        {
            "bufferView" : 9,
            "componentType" : 5126,
            "count" : 3582,
            "type" : "VEC3"
        },
        {
            "bufferView" : 10,
            "componentType" : 5126,
            "count" : 3582,
            "type" : "VEC2"
        },
        {
            "bufferView" : 11,
            "componentType" : 5123,
            "count" : 5460,
            "type" : "SCALAR"
        },
        {
            "bufferView" : 12,
            "componentType" : 5126,
            "count" : 1521,
            "max" : [
                1.005763053894043,
                0.2735564708709717,
                0.03942176699638367
            ],
            "min" : [
                -0.2888845205307007,
                -0.21013522148132324,
                -0.039422184228897095
            ],
            "type" : "VEC3"
        },
        {
            "bufferView" : 13,
            "componentType" : 5126,
            "count" : 1521,
            "type" : "VEC3"
        },
        {
            "bufferView" : 14,
            "componentType" : 5126,
            "count" : 1521,
            "type" : "VEC2"
        },
        {
            "bufferView" : 15,
            "componentType" : 5123,
            "count" : 2328,
            "type" : "SCALAR"
        }
    ],
    "bufferViews" : [
        {
            "buffer" : 0,
            "byteLength" : 7092,
            "byteOffset" : 0,
            "target" : 34962
        },
        {
            "buffer" : 0,
            "byteLength" : 7092,
            "byteOffset" : 7092,
            "target" : 34962
        },
        {
            "buffer" : 0,
            "byteLength" : 4728,
            "byteOffset" : 14184,
            "target" : 34962
        },
        {
            "buffer" : 0,
            "byteLength" : 1182,
            "byteOffset" : 18912,
            "target" : 34963
        },
        {
            "buffer" : 0,
            "byteLength" : 2736,
            "byteOffset" : 20096,
            "target" : 34962
        },
        {
            "buffer" : 0,
            "byteLength" : 2736,
            "byteOffset" : 22832,
            "target" : 34962
        },
        {
            "buffer" : 0,
            "byteLength" : 1824,
            "byteOffset" : 25568,
            "target" : 34962
        },
        {
            "buffer" : 0,
            "byteLength" : 456,
            "byteOffset" : 27392,
            "target" : 34963
        },
        {
            "buffer" : 0,
            "byteLength" : 42984,
            "byteOffset" : 27848,
            "target" : 34962
        },
        {
            "buffer" : 0,
            "byteLength" : 42984,
            "byteOffset" : 70832,
            "target" : 34962
        },
        {
            "buffer" : 0,
            "byteLength" : 28656,
            "byteOffset" : 113816,
            "target" : 34962
        },
        {
            "buffer" : 0,
            "byteLength" : 10920,
            "byteOffset" : 142472,
            "target" : 34963
        },
        {
            "buffer" : 0,
            "byteLength" : 18252,
            "byteOffset" : 153392,
            "target" : 34962
        },
        {
            "buffer" : 0,
            "byteLength" : 18252,
            "byteOffset" : 171644,
            "target" : 34962
        },
        {
            "buffer" : 0,
            "byteLength" : 12168,
            "byteOffset" : 189896,
            "target" : 34962
        },
        {
            "buffer" : 0,
            "byteLength" : 4656,
            "byteOffset" : 202064,
            "target" : 34963
        }
    ],
    "buffers" : [
        {
            "byteLength" : 206720,
            "uri" : "data:application/octet-stream;base64,"
        }
    ]
}
